<svg preserveAspectRatio="xMinYMin" xmlns="http://www.w3.org/2000/svg" viewBox="0 0 2000 720" width="175" height="63" class="ct__header__logo__svg"><title>c't Magazin</title><path d="M441.83,0H604.68l-86,351H436.73L485,153.92H404.12L441.83,0ZM626.93,0,541.09,349.18l-9.16,36.94c-14.27,64.94-21,102.53-21,126.05,0,107.68,79.68,195.05,206.76,193.78h145L910,513.77H770.79S752.44,513.56,742,509c-11-4.82-17-9.47-24-19.25-5.85-8.26-8-14.1-9.67-24.09-2.17-13,4-33.59,4-33.59l20-81.55H910.64L953.15,177.6H775.07L818.73,0ZM331.41,177.49C144.18,177.23,0,358.93,0,511.46c0,107.7,78.86,197.3,206.25,194.43H404.32l47.26-192.2h-203c-41.84-.23-54.57-42.38-54.57-67.95,0-44.83,50.33-95.19,98.79-95.32h120.9l42.53-172.94Zm735,21.24h-28.86l-26.6,99h28.86l12.63-47.18c4.46-16.83,10.3-24.36,18.7-24.36,5.95,0,8.68,4.43,7.47,11.52-.38,2.21-.82,3.77-2,8.41l-13.92,51.61h28.86l12.63-47.18c2-7.75,3.74-12.62,5.46-15.51,3.4-5.53,8.34-8.85,13.59-8.85,6.12,0,8.82,4.65,7.41,12.84-.34,2-1.42,6.2-2.48,10.41l-13,48.28h28.68l14.17-52c2.59-10,4.29-16.83,5-21,3-17.5-4.68-28.8-19.73-28.8-11.19,0-20.21,4.65-32,17.06-2.91-12.63-8.26-17.06-19.81-17.06-11.19,0-19.09,4.21-29.67,15.95Zm206.57,0h-28.86L1242.19,210c-6.89-10.85-12.09-14.17-22.93-14.17-23.79,0-45.49,24.59-51.23,58-4.86,28.35,4.76,46.73,24.52,46.73,10.67,0,18.45-3.54,28.94-13.73l-4,10.85h28.86Zm-52,25.91c9.62,0,14.06,7.75,11.82,20.82-2.58,15.06-12.39,26.36-22.71,26.36-9.62,0-14.37-8-12.21-20.6C1200.49,235.94,1210.47,224.64,1221,224.64Zm155.86-25.91h-28.68l-3,14.17c-5.91-12.4-12.46-17.06-23.66-17.06-23.08,0-43.3,23-48.88,55.59-2.58,15.07-1.56,27.47,3,35.66a26,26,0,0,0,23,13.51c9.09,0,15.26-3.32,25.37-13.28l-4.2,15.28c-4.27,15.72-10.7,22.59-21.72,22.59-8.4,0-12.81-4.88-12.37-13.51h-27.46c-1.08,15.51.21,23.26,5.12,30.34,5.81,8,15.27,12,29.44,12,19.59,0,32.93-6.42,42.71-20.6,6-8.42,11-21.26,16.81-43Zm-53.06,25.91c9.62,0,14,8,11.74,21.26-2.62,15.28-11.26,25.91-21.24,25.91-9.45,0-14.26-8.64-12-21.93C1304.81,235.27,1313.79,224.64,1323.77,224.64Zm156.79-25.91H1451.7L1449.76,210c-6.89-10.85-12.09-14.17-22.93-14.17-23.79,0-45.49,24.59-51.23,58-4.86,28.35,4.76,46.73,24.52,46.73,10.67,0,18.45-3.54,28.94-13.73l-4,10.85H1454Zm-52,25.91c9.62,0,14.06,7.75,11.82,20.82-2.58,15.06-12.39,26.36-22.71,26.36-9.62,0-14.37-8-12.21-20.6C1408.06,235.94,1418,224.64,1428.54,224.64Zm132.5,45h-37.78l59.9-70.87h-82.56l-8.49,28.13h34.1l-60.43,70.87h86.75Zm61.66-70.87h-28.86l-26.6,99h28.86Zm-.22-58.91c-9.62,0-19.16,9.75-21.17,21.48-2.09,12.18,3.94,21.93,13.55,21.93,9.45,0,18.64-9.75,20.73-21.93C1637.65,149.34,1631.76,139.82,1622.49,139.82Zm46.75,58.91h-28.86l-26.6,99h28.86l12-44.74c3-11.3,5.08-16.39,8-20.38s7.57-6.42,11.77-6.42c6.82,0,9.54,5.54,7.8,15.72-.57,3.32-1.2,6-2.79,12.18l-11.85,43.63h28.86l15-55.81c1.43-5.31,2.89-11.74,3.61-15.94,3.31-19.27-3.58-30.12-19.5-30.12-10.66,0-18.31,3.77-31,15.73Zm136.53,28.13h19.59l7.62-28.13h-19.59l4.58-17.5c3.23-11.74,7.39-16.61,14-16.61,3.5,0,5.9,1.33,8.78,4.88l8.33-31.23c-6.25-3.32-11.1-4.65-17.39-4.65a34.82,34.82,0,0,0-18.44,5.53c-10.62,6.87-17.59,17.94-22.42,35.89l-6.34,23.7h-12.07l-7.62,28.13h12.07l-19,70.87h28.69Zm121-28.13h-28.86L1884,250.33c-3.65,14.17-8.84,19.93-17.58,19.93-7.7,0-11.31-4.43-10-12.18.23-1.33,1.45-6.42,3.14-12.18l12.63-47.18h-28.86L1830,248.12c-1.22,5.09-2.44,10.19-3.05,13.73-4.22,24.58,7.52,38.76,32.35,38.76,14.34,0,27.14-4.21,35.46-12,7.52-7.08,12.62-17.5,18-37.65ZM1881.08,144c-7.52,0-14.76,7.53-16.39,17.05s3,17.06,10.72,17.06c7.34,0,14.58-7.53,16.17-16.83C1893.22,151.78,1888.6,144,1881.08,144Zm34.1,0c-7.52,0-14.93,7.53-16.53,16.84-1.63,9.52,3.16,17.27,10.86,17.27,7,0,14.45-7.75,16-16.61C1927.12,152,1922.36,144,1915.18,144Zm55.47,54.71H1941.8l-26.6,99h28.86l11.24-42.08c2.83-10.41,4.6-14.62,7.42-18.83a19,19,0,0,1,16-8.42c5.07,0,8.34,1.33,12.36,4.43l9-33.89c-2.41-.22-4.33-.22-5.56-.22-11,0-17.67,3.1-28.37,13.51ZM1060.55,411.84a37.7,37.7,0,0,0-22.44-6.87c-25,0-47.18,23.26-52.69,55.37-5,29,7.1,49.39,29,49.39,6.47,0,10.69-1.11,21.37-5.31l8.29-31c-7.07,5.54-11.26,7.53-16.69,7.53-9.79,0-14.69-8.19-12.44-21.26,2.58-15.06,12.31-25.91,23-25.91,6.12,0,10.07,2.44,14.39,8.86Zm53.91-6.87c-27.81,0-51.33,21.93-56.61,52.72-5.32,31,10,52,37.6,52,15.57,0,27.54-5.54,38.37-17.71a73.52,73.52,0,0,0,17.14-35.66C1156.34,424.91,1142.27,405,1114.45,405Zm-4.41,28.8c9.62,0,14.06,7.75,11.82,20.82-2.58,15.06-12.39,26.36-22.88,26.36-9.62,0-14.38-8-12.21-20.6C1089.39,445.07,1099.37,433.77,1110,433.77Zm95.16-25.91h-28.86l-26.59,99h28.86l12.64-47.18c4.46-16.83,10.3-24.36,18.69-24.36,5.95,0,8.68,4.43,7.47,11.51-.38,2.21-.82,3.77-2,8.42l-13.92,51.61h28.86L1243,459.68c2-7.75,3.74-12.62,5.46-15.5,3.4-5.53,8.34-8.86,13.59-8.86,6.12,0,8.82,4.65,7.41,12.84-.34,2-1.42,6.2-2.48,10.41l-13,48.28h28.68l14.17-52c2.59-10,4.29-16.84,5-21,3-17.5-4.69-28.8-19.73-28.8-11.2,0-20.22,4.65-32,17.06-2.91-12.63-8.27-17.06-19.81-17.06-11.2,0-19.09,4.21-29.67,16Zm150.8,0h-28.86l-41.22,153.71h28.86L1333.87,490c5.34,13.74,13.06,19.71,24.78,19.71,22.39,0,41.16-22.81,47.05-57.14,5-29.23-4.26-47.62-24-47.62-10.14,0-17.82,4-29.9,15.28Zm8.15,25.91c9.62,0,14.07,7.75,11.82,20.82-2.58,15.06-12.39,26.36-22.71,26.36-9.62,0-14.38-8-12.21-20.6C1343.67,445.07,1353.66,433.77,1364.15,433.77Zm149.93-25.91h-28.86l-13.92,51.6c-3.86,14.4-8.84,19.93-17.76,19.93-7.69,0-11-4.43-9.52-12.84.34-2,1.52-6.87,2.68-11.51l12.81-47.18h-28.86l-13.37,49.39c-1.22,5.09-2.44,10.18-3.06,13.73-4.21,24.58,7.53,38.76,32.36,38.76,14.34,0,27.14-4.21,35.28-12,7.69-7.08,12.62-17.5,18.18-37.65ZM1558.91,436h15.39l7.62-28.13h-15.39l8.41-31.67h-28.69l-8.58,31.67h-12.24L1517.81,436h12.42l-19.15,70.87h28.86Zm101.39,28.8c.86-4,1.64-7.53,1.9-9.08,5.43-31.67-6.34-50.72-31.35-50.72-14.17,0-26.66,5.54-36.75,16.39-9.45,10.19-16.53,25-19.12,40.09-5.17,30.12,6.94,48.28,32.3,48.28,13.47,0,25.28-4.65,34.5-13.51,5.71-5.76,9.46-11.3,14.68-22.37H1625c-2.23,6.87-6.47,10.19-12.76,10.19a11.48,11.48,0,0,1-10-5.09c-1.57-3.11-1.66-6.65-.37-14.17Zm-53-20.6c3.49-10.19,9.27-15.28,17.14-15.28,7.7,0,11.33,5.31,10.15,15.28Zm106.61-36.32h-28.86l-26.6,99h28.86l11.24-42.08c2.83-10.41,4.6-14.62,7.42-18.83a19,19,0,0,1,16-8.42c5.07,0,8.34,1.33,12.36,4.43l9-33.88c-2.41-.23-4.33-.23-5.56-.23-11,0-17.67,3.1-28.37,13.51ZM997,646.25h15.39l7.62-28.13h-15.39l8.41-31.67H984.31l-8.58,31.67H963.5l-7.63,28.13h12.42l-19.14,70.87H978ZM1097.2,675c.86-4,1.64-7.53,1.9-9.08,5.43-31.67-6.34-50.72-31.35-50.72-14.17,0-26.66,5.54-36.75,16.39-9.44,10.19-16.53,25-19.12,40.09-5.16,30.12,6.94,48.28,32.3,48.28,13.47,0,25.28-4.64,34.5-13.51,5.71-5.76,9.46-11.3,14.68-22.37h-31.48c-2.23,6.86-6.47,10.19-12.76,10.19a11.48,11.48,0,0,1-10-5.09c-1.57-3.11-1.66-6.65-.37-14.17Zm-53-20.6c3.5-10.19,9.27-15.28,17.14-15.28,7.7,0,11.33,5.32,10.15,15.28Zm138.31-32.34a37.69,37.69,0,0,0-22.43-6.87c-25,0-47.19,23.26-52.69,55.37-5,29,7.1,49.39,29,49.39,6.47,0,10.69-1.1,21.37-5.31l8.29-31c-7.07,5.54-11.26,7.53-16.69,7.53-9.79,0-14.69-8.2-12.44-21.26,2.58-15.06,12.31-25.91,23-25.91,6.12,0,10.07,2.44,14.4,8.86Zm60.89-66.44h-28.86l-43.42,161.46H1200l12.59-47c2.43-9.08,4-13.07,6.17-16.61,3.15-5.09,8-8,13.08-8,7.17,0,9.66,4.87,7.8,15.72-.65,3.77-1.32,6.65-4,16.17L1225,717.12h28.86l13.55-50.5c1.55-6,3.33-13.29,3.9-16.61,3.84-22.37-3-34.78-19.4-34.78-9.27,0-16.45,3.11-27.72,11.74Zm82.72,62.46H1297.3l-26.6,99h28.86l12-44.74c3-11.3,5.09-16.39,8-20.38s7.57-6.42,11.77-6.42c6.82,0,9.54,5.54,7.8,15.72-.57,3.32-1.2,6-2.79,12.18l-11.86,43.63h28.87l15-55.81c1.43-5.31,2.89-11.73,3.61-15.94,3.31-19.27-3.58-30.13-19.5-30.13-10.67,0-18.31,3.77-31,15.73Zm100.76,0h-28.86l-26.59,99h28.86Zm-.22-58.91c-9.62,0-19.16,9.75-21.17,21.49-2.09,12.18,3.94,21.92,13.55,21.92,9.45,0,18.64-9.74,20.73-21.92C1441.87,568.73,1436,559.21,1426.7,559.21Zm63.93-3.54h-28.86l-43.42,161.46h28.86l12.51-46.51a271.57,271.57,0,0,0,13.59,29.9l8.69,16.61h35.16l-27.32-53.82,41.85-45.18h-36.38l-31.09,35.43Z" fill="#ffffff"></path></svg>