<?xml version="1.0" encoding="UTF-8" standalone="no"?>
<!DOCTYPE svg PUBLIC "-//W3C//DTD SVG 1.1//EN" "http://www.w3.org/Graphics/SVG/1.1/DTD/svg11.dtd">
<svg width="100%" height="100%" viewBox="0 0 998 206" version="1.1" xmlns="http://www.w3.org/2000/svg" xmlns:xlink="http://www.w3.org/1999/xlink" xml:space="preserve" xmlns:serif="http://www.serif.com/" style="fill-rule:evenodd;clip-rule:evenodd;stroke-linejoin:round;stroke-miterlimit:2;">
    <path d="M423.36,195.028L428.05,195.028L428.05,157.718L423.36,157.718L423.36,195.028ZM438.6,161.948L449.32,161.948L449.32,195.028L454.01,195.028L454.01,161.948L464.69,161.948L464.69,157.718L438.63,157.718L438.63,161.948L449.31,161.948L449.31,195.028L454,195.028L454,161.948L464.68,161.948L464.68,157.718L438.62,157.718L438.62,161.948L449.3,161.948L449.3,195.028L453.99,195.028L453.99,161.948L464.67,161.948L464.67,157.718L438.61,157.718L438.61,161.948L449.29,161.948L449.29,195.028L453.98,195.028L453.98,161.948L464.66,161.948L464.66,157.718L438.6,157.718L438.6,161.948ZM466.73,182.848L480.86,182.848L480.86,178.148L466.73,178.148L466.73,182.848ZM516.14,188.228L498.5,157.728L493.11,157.728L493.11,195.038L497.8,195.038L497.8,165.148L514.97,194.758L515.13,195.028L520.83,195.028L520.83,157.718L516.14,157.718L516.14,188.228ZM540.09,177.978L553.53,177.978L553.53,173.748L540.09,173.748L540.09,161.958L554.24,161.958L554.24,157.728L535.41,157.728L535.41,195.038L554.87,195.038L554.87,190.818L540.09,190.818L540.09,177.978ZM600.6,188.588L591.85,157.728L586.71,157.728L577.8,188.578L569.25,157.728L564.4,157.728L575.09,195.038L580.22,195.038L589.19,164.168L598.01,195.048L603.09,195.048L613.89,157.738L609.31,157.738L600.59,188.598L600.6,188.588ZM634.83,173.578C631.16,171.638 627.99,169.948 627.99,166.998C627.99,161.738 633.56,161.328 635.26,161.328C637.73,161.328 640.14,161.818 641.58,162.608L642.26,162.978L643.05,158.498L642.62,158.338C639.58,157.198 636.27,157.108 635.32,157.108C628.25,157.108 623.31,161.218 623.31,167.108C623.31,172.518 628.34,175.288 632.78,177.708C636.44,179.718 639.89,181.608 639.89,184.578C639.89,188.868 637.06,191.428 632.31,191.428C629.25,191.428 626.82,190.778 624.62,189.388L623.86,188.898L623.37,193.888L623.74,194.048C625.44,194.788 628.27,195.648 632.15,195.648C638.34,195.648 644.58,192.318 644.58,184.878C644.58,178.758 639.4,176.008 634.83,173.578M679.12,195.028L683.82,195.028L683.82,177.968L696.83,177.968L696.83,173.738L683.82,173.738L683.82,161.938L697.45,161.938L697.45,157.718L679.12,157.718L679.12,195.028ZM725.2,155.728L730.21,155.728L730.21,150.268L725.2,150.268L725.2,155.728ZM716.33,155.728L721.34,155.728L721.34,150.268L716.33,150.268L716.33,155.728ZM732.26,181.818C732.26,187.838 728.9,191.428 723.27,191.428C717.65,191.428 714.28,187.838 714.28,181.818L714.28,157.718L709.6,157.718L709.6,181.818C709.6,192.018 716.67,195.648 723.27,195.648C729.88,195.648 736.94,192.018 736.94,181.818L736.94,157.718L732.25,157.718L732.25,181.818L732.26,181.818ZM756.47,161.948L759.59,161.948C764.61,161.948 768.16,162.358 768.16,167.668C768.16,173.298 761.68,173.748 759.69,173.748L756.46,173.748L756.47,161.948ZM769.3,179.978C768.5,178.258 767.87,176.888 766.34,176.128C770.3,174.898 772.85,171.698 772.85,167.668C772.85,161.158 768.99,157.718 761.67,157.718L751.78,157.718L751.78,195.028L756.48,195.028L756.48,177.968L758.88,177.968C762.1,177.968 763.43,177.968 765.42,182.448L770.79,195.028L775.96,195.028L769.44,180.238L769.31,179.968L769.3,179.978ZM825.94,168.558C825.94,174.078 822.3,175.158 816.02,175.158L814.08,175.158L814.08,161.958L819.34,161.958C823.59,161.958 825.93,164.308 825.94,168.558M818.87,157.728L809.39,157.728L809.39,195.038L814.07,195.038L814.07,179.378L818.5,179.378C825.86,179.378 830.62,175.128 830.62,168.558C830.62,161.678 826.33,157.728 818.86,157.728M847.34,161.958L850.47,161.958C855.48,161.958 859.04,162.368 859.04,167.678C859.04,173.308 852.56,173.758 850.57,173.758L847.34,173.758L847.34,161.958ZM860.19,179.988C859.38,178.258 858.75,176.898 857.22,176.138C861.19,174.908 863.73,171.708 863.73,167.678C863.73,161.168 859.86,157.728 852.55,157.728L842.66,157.728L842.66,195.038L847.35,195.038L847.35,177.978L849.75,177.978C852.87,177.978 854.3,177.978 856.3,182.458L861.68,195.038L866.85,195.038L860.33,180.248L860.21,179.988L860.19,179.988ZM893.44,191.428C885.3,191.428 881.65,183.868 881.65,176.378C881.65,168.888 885.3,161.328 893.44,161.328C901.58,161.328 905.22,168.898 905.22,176.378C905.22,183.868 901.57,191.428 893.44,191.428M893.44,157.108C888.95,157.108 885.06,158.628 882.21,161.508C878.76,164.998 876.9,170.278 876.96,176.378C877.07,188.438 883.22,195.648 893.43,195.648C903.64,195.648 909.79,188.438 909.89,176.378C909.96,170.278 908.09,164.988 904.64,161.508C901.79,158.628 897.91,157.108 893.42,157.108M922.79,195.038L927.49,195.038L927.49,177.978L940.5,177.978L940.5,173.748L927.49,173.748L927.49,161.948L941.12,161.948L941.12,157.728L922.79,157.728L922.79,195.038ZM953.07,195.038L957.76,195.038L957.76,157.728L953.07,157.728L953.07,195.038ZM982.37,173.578C978.71,171.638 975.53,169.948 975.53,166.998C975.53,161.738 981.1,161.328 982.81,161.328C985.27,161.328 987.7,161.818 989.13,162.608L989.81,162.978L990.6,158.498L990.16,158.338C987.13,157.198 983.8,157.108 982.85,157.108C975.78,157.108 970.84,161.218 970.84,167.108C970.84,172.518 975.87,175.288 980.32,177.708C983.98,179.718 987.43,181.608 987.43,184.578C987.43,188.868 984.6,191.428 979.84,191.428C976.79,191.428 974.35,190.778 972.16,189.388L971.4,188.898L970.91,193.888L971.28,194.048C972.98,194.788 975.81,195.648 979.69,195.648C985.87,195.648 992.12,192.318 992.12,184.878C992.12,178.758 986.93,176.008 982.36,173.578M384.48,84.588C384.48,69.998 378.85,58.068 365.91,58.068C350.83,58.068 346.02,71.998 346.02,85.088C346.02,96.698 352.16,110.958 364.92,110.958C378.85,110.958 384.48,98.848 384.48,84.588M406.7,42.808L406.7,119.898C406.7,143.108 397.42,164.988 361.61,164.988C352.82,164.988 342.71,163.668 332.1,159.188L333.92,140.288C340.71,143.938 351.82,147.748 358.79,147.748C383.33,147.748 384.49,129.348 384.49,114.588L384.16,114.588C380.02,121.878 370.07,128.188 357.63,128.188C332.43,128.188 322.82,107.958 322.82,85.078C322.82,64.518 333.43,40.818 358.96,40.818C370.23,40.818 379.02,44.628 385.15,54.408L385.48,54.408L385.48,42.808L406.7,42.808ZM462.07,112.938C479.14,112.938 483.62,97.688 483.62,83.428C483.62,70.328 476.66,58.058 462.07,58.058C447.64,58.058 440.69,70.658 440.69,83.428C440.69,97.518 445.16,112.938 462.07,112.938M462.07,40.818C487.44,40.818 506.83,57.898 506.83,86.078C506.83,110.618 490.41,130.178 462.07,130.178C433.89,130.178 417.47,110.618 417.47,86.078C417.47,57.888 436.86,40.818 462.07,40.818M519.59,128.188L541.81,128.188L541.81,3.848L519.59,3.848L519.59,128.188ZM612.09,77.128C611.43,66.348 606.45,57.068 594.02,57.068C581.59,57.068 575.29,65.688 574.29,77.128L612.09,77.128ZM627.01,123.378C618.89,127.858 609.59,130.178 597.66,130.178C569.49,130.178 553.06,113.928 553.06,85.918C553.06,61.208 566.16,40.818 592.69,40.818C624.36,40.818 633.31,62.538 633.31,92.378L574.29,92.378C575.29,106.138 584.9,113.938 598.66,113.938C609.44,113.938 618.72,109.958 627.01,105.318L627.01,123.388L627.01,123.378ZM645.41,42.798L666.14,42.798L666.14,54.738L666.47,54.738C673.43,44.288 683.54,40.808 691.84,40.808C703.77,40.808 712.23,45.288 717.04,55.888C722.18,45.618 733.3,40.808 743.73,40.808C764.78,40.808 770.76,55.228 770.76,74.298L770.76,128.188L748.54,128.188L748.54,77.288C748.54,69.328 748.54,58.058 735.77,58.058C721.01,58.058 719.19,75.628 719.19,86.738L719.19,128.198L696.97,128.198L696.97,77.298C696.97,69.338 696.97,58.068 684.21,58.068C669.45,58.068 667.63,75.638 667.63,86.748L667.63,128.208L645.41,128.208L645.41,42.798ZM786.49,128.188L809.71,128.188L809.71,104.978L786.49,104.978L786.49,128.188ZM861.89,112.928C876.64,112.928 881.46,97.338 881.46,85.238C881.46,73.308 875.82,58.048 861.56,58.048C847.14,58.048 843.16,73.798 843.16,85.238C843.16,97.008 847.31,112.928 861.89,112.928M882.29,118.558L881.96,118.558C875.33,126.858 866.21,130.168 855.76,130.168C829.55,130.168 819.95,108.618 819.95,85.238C819.95,61.698 829.55,40.808 855.76,40.808C866.86,40.808 874.65,44.618 881.29,52.748L881.62,52.748L881.62,3.838L903.83,3.838L903.83,128.178L882.29,128.178L882.29,118.558ZM973.63,77.118C972.96,66.338 967.99,57.058 955.55,57.058C943.12,57.058 936.82,65.678 935.83,77.118L973.63,77.118ZM988.55,123.368C980.43,127.848 971.14,130.168 959.2,130.168C931.01,130.168 914.6,113.918 914.6,85.908C914.6,61.198 927.7,40.808 954.23,40.808C985.9,40.808 994.85,62.528 994.85,92.368L935.83,92.368C936.82,106.128 946.44,113.928 960.2,113.928C970.98,113.928 980.26,109.948 988.55,105.308L988.55,123.378L988.55,123.368Z" style="fill:white;fill-rule:nonzero;"/>
    <path d="M93.175,126.378C93.175,129.078 95.395,131.308 98.105,131.308C100.805,131.308 103.035,129.088 103.035,126.378C103.035,123.638 100.815,121.448 98.105,121.448C95.395,121.458 93.175,123.678 93.175,126.378" style="fill:rgb(117,207,162);fill-rule:nonzero;"/>
    <path d="M160.3,59.028C160.3,61.988 162.71,64.398 165.67,64.398C168.63,64.398 171.04,61.988 171.04,59.028C171.04,56.068 168.63,53.658 165.67,53.658C162.71,53.658 160.3,56.068 160.3,59.028" style="fill:rgb(118,207,160);fill-rule:nonzero;"/>
    <path d="M182.97,103.678C182.97,106.348 185.16,108.528 187.82,108.528C190.49,108.528 192.67,106.338 192.67,103.678C192.67,101.008 190.48,98.828 187.82,98.828C185.16,98.818 182.97,101.008 182.97,103.678" style="fill:rgb(128,207,102);fill-rule:nonzero;"/>
    <path d="M183.04,126.608C183.04,129.198 185.15,131.348 187.78,131.348C190.41,131.348 192.52,129.198 192.52,126.608C192.52,123.978 190.37,121.868 187.78,121.868C185.16,121.868 183.04,124.008 183.04,126.608" style="fill:rgb(132,208,82);fill-rule:nonzero;"/>
    <path d="M203.57,126.608C203.57,130.428 206.68,133.538 210.5,133.538C214.32,133.538 217.43,130.428 217.43,126.608C217.43,122.788 214.32,119.678 210.5,119.678C206.68,119.678 203.57,122.788 203.57,126.608" style="fill:rgb(135,208,62);fill-rule:nonzero;"/>
    <path d="M201.79,104.078C201.79,108.858 205.72,112.788 210.5,112.788C215.28,112.788 219.21,108.858 219.21,104.078C219.21,99.298 215.28,95.368 210.5,95.368C205.72,95.378 201.79,99.298 201.79,104.078" style="fill:rgb(132,208,82);fill-rule:nonzero;"/>
    <path d="M204.2,81.558C204.2,85.008 207.02,87.818 210.5,87.818C213.95,87.818 216.8,84.998 216.8,81.518C216.8,78.068 213.98,75.218 210.5,75.218C207.05,75.218 204.24,78.038 204.24,81.518" style="fill:rgb(128,207,101);fill-rule:nonzero;"/>
    <path d="M179.27,58.658C179.27,63.438 183.2,67.368 187.98,67.368C192.76,67.368 196.69,63.438 196.69,58.658C196.69,53.878 192.76,49.948 187.98,49.948C183.19,49.958 179.27,53.878 179.27,58.658" style="fill:rgb(121,207,140);fill-rule:nonzero;"/>
    <path d="M158.45,36.768C158.45,40.618 161.6,43.728 165.45,43.728C169.3,43.728 172.45,40.578 172.45,36.728C172.45,32.878 169.3,29.728 165.45,29.728C161.6,29.728 158.45,32.878 158.45,36.728" style="fill:rgb(114,207,179);fill-rule:nonzero;"/>
    <path d="M133.99,36.768C133.99,41.548 137.92,45.478 142.7,45.478C147.48,45.478 151.41,41.548 151.41,36.768C151.41,31.988 147.48,28.058 142.7,28.058C137.92,28.058 133.99,31.988 133.99,36.768" style="fill:rgb(110,206,199);fill-rule:nonzero;"/>
    <path d="M113.28,36.768C113.28,40.808 116.58,44.138 120.65,44.138C124.69,44.138 128.02,40.838 128.02,36.768C128.02,32.688 124.72,29.398 120.65,29.398C116.62,29.398 113.28,32.688 113.28,36.768" style="fill:rgb(106,206,222);fill-rule:nonzero;"/>
    <path d="M160.26,148.908C160.26,151.758 162.63,154.128 165.48,154.128C168.37,154.128 170.7,151.758 170.7,148.908C170.7,146.018 168.33,143.688 165.48,143.688C162.63,143.688 160.26,146.058 160.26,148.908" style="fill:rgb(132,208,83);fill-rule:nonzero;"/>
    <path d="M179.12,148.908C179.12,153.688 183.05,157.618 187.83,157.618C192.61,157.618 196.54,153.688 196.54,148.908C196.54,144.128 192.61,140.198 187.83,140.198C183.04,140.198 179.12,144.128 179.12,148.908" style="fill:rgb(136,208,61);fill-rule:nonzero;"/>
    <path d="M114.03,148.908C114.03,152.538 116.99,155.538 120.66,155.538C124.29,155.538 127.29,152.578 127.29,148.908C127.29,145.238 124.29,142.278 120.66,142.278C116.99,142.278 114.03,145.238 114.03,148.908" style="fill:rgb(124,207,122);fill-rule:nonzero;"/>
    <path d="M137.85,148.908C137.85,151.728 140.15,154.018 142.96,154.018C145.78,154.018 148.07,151.718 148.07,148.908C148.07,146.088 145.77,143.798 142.96,143.798C140.14,143.798 137.85,146.088 137.85,148.908" style="fill:rgb(128,207,103);fill-rule:nonzero;"/>
    <path d="M114.03,171.658C114.03,175.738 117.36,179.028 121.4,179.028C125.48,179.028 128.81,175.698 128.81,171.618C128.81,167.538 125.48,164.208 121.44,164.208C117.36,164.208 114.07,167.538 114.07,171.618" style="fill:rgb(128,207,102);fill-rule:nonzero;"/>
    <path d="M135.25,171.658C135.25,176.438 139.18,180.368 143.96,180.368C148.74,180.368 152.67,176.438 152.67,171.658C152.67,166.878 148.74,162.948 143.96,162.948C139.18,162.948 135.25,166.878 135.25,171.658" style="fill:rgb(132,208,82);fill-rule:nonzero;"/>
    <path d="M158.67,171.658C158.67,175.698 162,179.028 166.04,179.028C170.12,179.028 173.41,175.698 173.41,171.658C173.41,167.578 170.11,164.288 166.04,164.288C162,164.278 158.67,167.618 158.67,171.658" style="fill:rgb(135,208,63);fill-rule:nonzero;"/>
    <path d="M92.245,149.128C92.245,152.798 95.245,155.798 98.915,155.798C102.59,155.798 105.545,152.798 105.545,149.128C105.545,145.458 102.545,142.498 98.915,142.498C95.245,142.498 92.285,145.498 92.285,149.128" style="fill:rgb(121,207,141);fill-rule:nonzero;"/>
    <path d="M67.685,104.078C67.685,108.858 71.615,112.788 76.395,112.788C81.175,112.788 85.105,108.858 85.105,104.078C85.105,99.298 81.175,95.368 76.395,95.368C71.615,95.378 67.685,99.298 67.685,104.078" style="fill:rgb(110,206,200);fill-rule:nonzero;"/>
    <path d="M69.755,126.638C69.755,130.268 72.715,133.228 76.345,133.228C79.975,133.228 82.935,130.268 82.935,126.638C82.935,123.008 79.975,120.048 76.345,120.048C72.725,120.048 69.755,123.008 69.755,126.638" style="fill:rgb(114,207,181);fill-rule:nonzero;"/>
    <path d="M69.465,81.928C69.465,85.748 72.575,88.818 76.395,88.818C80.175,88.818 83.325,85.708 83.325,81.888C83.325,78.068 80.215,74.958 76.395,74.958C72.575,74.958 69.465,78.068 69.465,81.888" style="fill:rgb(106,206,222);fill-rule:nonzero;"/>
    <path d="M89.435,58.998C89.435,63.778 93.365,67.708 98.145,67.708C102.93,67.708 106.855,63.778 106.855,58.998C106.855,54.218 102.925,50.288 98.145,50.288C93.355,50.288 89.435,54.218 89.435,58.998" style="fill:rgb(105,206,227);fill-rule:nonzero;"/>
    <path d="M182.9,81.558C182.9,84.258 185.12,86.448 187.79,86.448C190.49,86.448 192.72,84.228 192.72,81.558C192.72,78.858 190.5,76.668 187.83,76.668C185.13,76.668 182.94,78.858 182.94,81.558" style="fill:rgb(125,207,121);fill-rule:nonzero;"/>
    <path d="M98.125,110.588C94.655,110.588 91.815,107.748 91.815,104.278C91.815,100.808 94.655,97.968 98.125,97.968C101.595,97.968 104.435,100.808 104.435,104.278C104.435,107.738 101.595,110.588 98.125,110.588M128,59.378C128,63.178 124.92,66.248 121.13,66.248C117.33,66.248 114.25,63.178 114.25,59.378C114.25,55.578 117.32,52.508 121.13,52.508C124.92,52.508 128,55.578 128,59.378M150.87,59.378C150.87,63.178 147.79,66.248 144,66.248C140.2,66.248 137.12,63.178 137.12,59.378C137.12,55.578 140.2,52.508 144,52.508C147.79,52.508 150.87,55.578 150.87,59.378M128,104.218C128,108.008 124.92,111.088 121.13,111.088C117.33,111.088 114.25,108.008 114.25,104.218C114.25,100.418 117.32,97.338 121.13,97.338C124.92,97.338 128,100.418 128,104.218M150.87,104.218C150.87,108.008 147.79,111.088 144,111.088C140.2,111.088 137.12,108.008 137.12,104.218C137.12,100.418 140.2,97.338 144,97.338C147.79,97.338 150.87,100.418 150.87,104.218M105.8,80.858C105.8,84.648 102.72,87.728 98.93,87.728C95.13,87.728 92.06,84.648 92.06,80.858C92.06,77.058 95.13,73.978 98.93,73.978C102.72,73.978 105.8,77.058 105.8,80.858M124.76,125.878C124.76,127.888 123.14,129.508 121.13,129.508C119.13,129.508 117.49,127.888 117.49,125.878C117.49,123.858 119.13,122.238 121.13,122.238C123.14,122.238 124.76,123.868 124.76,125.878M169,104.218C169,106.218 167.37,107.848 165.37,107.848C163.36,107.848 161.72,106.218 161.72,104.218C161.72,102.198 163.35,100.578 165.37,100.578C167.38,100.578 169,102.198 169,104.218M169,80.858C169,82.858 167.37,84.488 165.37,84.488C163.36,84.488 161.72,82.858 161.72,80.858C161.72,78.848 163.35,77.218 165.37,77.218C167.38,77.218 169,78.848 169,80.858M146.64,125.878C146.64,127.338 145.46,128.518 143.99,128.518C142.53,128.518 141.34,127.338 141.34,125.878C141.34,124.408 142.53,123.228 143.99,123.228C145.45,123.228 146.64,124.418 146.64,125.878M130.33,80.858C130.33,85.938 126.21,90.048 121.04,90.048C115.96,90.048 111.83,85.938 111.83,80.858C111.83,75.778 115.95,71.658 121.04,71.658C126.12,71.658 130.33,75.778 130.33,80.858M153.2,80.858C153.2,85.938 149.08,90.048 144,90.048C138.91,90.048 134.79,85.938 134.79,80.858C134.79,75.778 138.91,71.658 144,71.658C149.08,71.658 153.2,75.778 153.2,80.858M3.26,102.708C3.26,105.558 5.59,107.928 8.48,107.928C11.37,107.928 13.7,105.558 13.7,102.708C13.7,99.818 11.37,97.488 8.48,97.488C5.59,97.488 3.26,99.818 3.26,102.708M22.3,80.848C22.3,85.628 26.23,89.558 31.01,89.558C35.79,89.558 39.72,85.628 39.72,80.848C39.72,76.068 35.79,72.138 31.01,72.138C26.22,72.148 22.3,76.078 22.3,80.848M22.3,104.228C22.3,109.008 26.23,112.938 31.01,112.938C35.79,112.938 39.72,109.008 39.72,104.228C39.72,99.448 35.79,95.518 31.01,95.518C26.22,95.518 22.3,99.448 22.3,104.228M22.3,125.868C22.3,130.648 26.23,134.578 31.01,134.578C35.79,134.578 39.72,130.648 39.72,125.868C39.72,121.088 35.79,117.158 31.01,117.158C26.22,117.158 22.3,121.088 22.3,125.868M48.3,36.288C48.3,39.138 50.63,41.508 53.52,41.508C56.37,41.508 58.74,39.138 58.74,36.288C58.74,33.398 56.41,31.068 53.52,31.068C50.64,31.058 48.3,33.398 48.3,36.288M44.82,59.368C44.82,64.148 48.75,68.078 53.53,68.078C58.31,68.078 62.24,64.148 62.24,59.368C62.24,54.588 58.31,50.658 53.53,50.658C48.75,50.658 44.82,54.588 44.82,59.368M69.09,59.368C69.09,63.188 72.24,66.328 76.05,66.328C79.87,66.328 83.01,63.178 83.01,59.368C83.01,55.548 79.9,52.408 76.05,52.408C72.24,52.398 69.09,55.548 69.09,59.368M44.82,80.848C44.82,85.628 48.75,89.558 53.53,89.558C58.31,89.558 62.24,85.628 62.24,80.848C62.24,76.068 58.31,72.138 53.53,72.138C48.75,72.148 44.82,76.078 44.82,80.848M44.82,104.228C44.82,109.008 48.75,112.938 53.53,112.938C58.31,112.938 62.24,109.008 62.24,104.228C62.24,99.448 58.31,95.518 53.53,95.518C48.75,95.518 44.82,99.448 44.82,104.228M44.82,125.868C44.82,130.648 48.75,134.578 53.53,134.578C58.31,134.578 62.24,130.648 62.24,125.868C62.24,121.088 58.31,117.158 53.53,117.158C48.75,117.158 44.82,121.088 44.82,125.868M44.82,148.868C44.82,153.648 48.75,157.578 53.53,157.578C58.31,157.578 62.24,153.648 62.24,148.868C62.24,144.088 58.31,140.158 53.53,140.158C48.75,140.168 44.82,144.058 44.82,148.868M69.09,148.868C69.09,152.688 72.24,155.828 76.05,155.828C79.87,155.828 83.01,152.718 83.01,148.868C83.01,145.048 79.9,141.908 76.05,141.908C72.24,141.908 69.09,145.018 69.09,148.868M48.3,171.398C48.3,174.248 50.67,176.618 53.52,176.618C56.37,176.618 58.74,174.248 58.74,171.398C58.74,168.508 56.41,166.178 53.52,166.178C50.64,166.168 48.3,168.508 48.3,171.398M67.35,36.288C67.35,41.068 71.28,44.998 76.06,44.998C80.84,44.998 84.77,41.068 84.77,36.288C84.77,31.508 80.84,27.578 76.06,27.578C71.27,27.578 67.35,31.508 67.35,36.288M67.35,171.398C67.35,176.178 71.28,180.108 76.06,180.108C80.84,180.108 84.77,176.178 84.77,171.398C84.77,166.618 80.84,162.688 76.06,162.688C71.27,162.688 67.35,166.618 67.35,171.398M93.72,13.758C93.72,16.608 96.05,18.978 98.94,18.978C101.83,18.978 104.16,16.608 104.16,13.758C104.16,10.868 101.83,8.538 98.94,8.538C96.1,8.538 93.72,10.868 93.72,13.758M90.24,36.288C90.24,41.068 94.17,44.998 98.95,44.998C103.73,44.998 107.66,41.068 107.66,36.288C107.66,31.508 103.73,27.578 98.95,27.578C94.17,27.578 90.24,31.508 90.24,36.288M90.24,171.398C90.24,176.178 94.17,180.108 98.95,180.108C103.73,180.108 107.66,176.178 107.66,171.398C107.66,166.618 103.73,162.688 98.95,162.688C94.17,162.688 90.24,166.618 90.24,171.398M93.72,193.918C93.72,196.768 96.05,199.138 98.94,199.138C101.83,199.138 104.16,196.808 104.16,193.918C104.16,191.028 101.83,188.698 98.94,188.698C96.1,188.698 93.72,191.028 93.72,193.918M112.43,13.758C112.43,18.538 116.36,22.468 121.14,22.468C125.92,22.468 129.85,18.538 129.85,13.758C129.85,8.978 125.92,5.048 121.14,5.048C116.36,5.058 112.43,8.978 112.43,13.758M112.43,193.918C112.43,198.698 116.36,202.628 121.14,202.628C125.92,202.628 129.85,198.698 129.85,193.918C129.85,189.138 125.92,185.208 121.14,185.208C116.36,185.218 112.43,189.138 112.43,193.918M134.92,13.758C134.92,18.538 138.85,22.468 143.63,22.468C148.41,22.468 152.34,18.538 152.34,13.758C152.34,8.978 148.41,5.048 143.63,5.048C138.85,5.058 134.92,8.978 134.92,13.758M134.92,193.918C134.92,198.698 138.85,202.628 143.63,202.628C148.41,202.628 152.34,198.698 152.34,193.918C152.34,189.138 148.41,185.208 143.63,185.208C138.85,185.218 134.92,189.138 134.92,193.918M157.44,13.758C157.44,18.538 161.37,22.468 166.15,22.468C170.93,22.468 174.86,18.538 174.86,13.758C174.86,8.978 170.97,5.048 166.15,5.048C161.37,5.058 157.44,8.978 157.44,13.758M157.44,193.918C157.44,198.698 161.37,202.628 166.15,202.628C170.93,202.628 174.86,198.698 174.86,193.918C174.86,189.138 170.97,185.208 166.15,185.208C161.37,185.218 157.44,189.138 157.44,193.918M183.45,13.758C183.45,16.608 185.78,18.978 188.67,18.978C191.56,18.978 193.89,16.608 193.89,13.758C193.89,10.868 191.56,8.538 188.67,8.538C185.82,8.538 183.45,10.868 183.45,13.758M179.97,36.288C179.97,41.068 183.9,44.998 188.68,44.998C193.46,44.998 197.39,41.068 197.39,36.288C197.39,31.508 193.46,27.578 188.68,27.578C183.9,27.578 179.97,31.508 179.97,36.288M179.97,171.398C179.97,176.178 183.9,180.108 188.68,180.108C193.46,180.108 197.39,176.178 197.39,171.398C197.39,166.618 193.46,162.688 188.68,162.688C183.9,162.688 179.97,166.618 179.97,171.398M183.45,193.918C183.45,196.768 185.78,199.138 188.67,199.138C191.56,199.138 193.89,196.808 193.89,193.918C193.89,191.028 191.56,188.698 188.67,188.698C185.82,188.698 183.45,191.028 183.45,193.918M202.46,36.288C202.46,41.068 206.39,44.998 211.17,44.998C215.95,44.998 219.88,41.068 219.88,36.288C219.88,31.508 215.95,27.578 211.17,27.578C206.38,27.578 202.46,31.508 202.46,36.288M202.46,171.398C202.46,176.178 206.39,180.108 211.17,180.108C215.95,180.108 219.88,176.178 219.88,171.398C219.88,166.618 215.95,162.688 211.17,162.688C206.38,162.688 202.46,166.618 202.46,171.398M204.2,148.868C204.2,152.688 207.35,155.828 211.16,155.828C214.98,155.828 218.12,152.718 218.12,148.868C218.12,145.048 214.97,141.908 211.16,141.908C207.35,141.908 204.2,145.018 204.2,148.868M228.46,36.288C228.46,39.138 230.79,41.508 233.68,41.508C236.57,41.508 238.9,39.138 238.9,36.288C238.9,33.398 236.57,31.068 233.68,31.068C230.83,31.058 228.46,33.398 228.46,36.288M224.98,59.368C224.98,64.148 228.91,68.078 233.69,68.078C238.47,68.078 242.4,64.148 242.4,59.368C242.4,54.588 238.47,50.658 233.69,50.658C228.91,50.658 224.98,54.588 224.98,59.368M204.2,59.368C204.2,63.188 207.35,66.328 211.16,66.328C214.98,66.328 218.12,63.178 218.12,59.368C218.12,55.548 214.97,52.408 211.16,52.408C207.35,52.398 204.2,55.548 204.2,59.368M224.98,80.848C224.98,85.628 228.91,89.558 233.69,89.558C238.47,89.558 242.4,85.628 242.4,80.848C242.4,76.068 238.47,72.138 233.69,72.138C228.91,72.148 224.98,76.078 224.98,80.848M224.98,104.228C224.98,109.008 228.91,112.938 233.69,112.938C238.47,112.938 242.4,109.008 242.4,104.228C242.4,99.448 238.47,95.518 233.69,95.518C228.91,95.518 224.98,99.448 224.98,104.228M224.98,125.868C224.98,130.648 228.91,134.578 233.69,134.578C238.47,134.578 242.4,130.648 242.4,125.868C242.4,121.088 238.47,117.158 233.69,117.158C228.91,117.158 224.98,121.088 224.98,125.868M224.98,148.868C224.98,153.648 228.91,157.578 233.69,157.578C238.47,157.578 242.4,153.648 242.4,148.868C242.4,144.088 238.47,140.158 233.69,140.158C228.91,140.168 224.98,144.058 224.98,148.868M247.51,80.848C247.51,85.628 251.44,89.558 256.22,89.558C261,89.558 264.93,85.628 264.93,80.848C264.93,76.068 261,72.138 256.22,72.138C251.43,72.148 247.51,76.078 247.51,80.848M247.51,104.228C247.51,109.008 251.44,112.938 256.22,112.938C261,112.938 264.93,109.008 264.93,104.228C264.93,99.448 261,95.518 256.22,95.518C251.43,95.518 247.51,99.448 247.51,104.228M247.51,125.868C247.51,130.648 251.44,134.578 256.22,134.578C261,134.578 264.93,130.648 264.93,125.868C264.93,121.088 261,117.158 256.22,117.158C251.43,117.158 247.51,121.088 247.51,125.868M271.77,104.008C271.77,106.858 274.1,109.228 276.99,109.228C279.88,109.228 282.21,106.858 282.21,104.008C282.21,101.118 279.88,98.788 276.99,98.788C274.14,98.778 271.77,101.118 271.77,104.008M27.34,58.738C27.34,60.738 28.97,62.368 30.97,62.368C32.97,62.368 34.6,60.738 34.6,58.738C34.6,56.738 32.97,55.108 30.97,55.108C28.97,55.108 27.34,56.738 27.34,58.738M230.06,172.248C230.06,174.248 231.69,175.878 233.69,175.878C235.69,175.878 237.32,174.248 237.32,172.248C237.32,170.248 235.69,168.618 233.69,168.618C231.69,168.618 230.06,170.248 230.06,172.248M252.25,148.798C252.25,150.798 253.88,152.428 255.88,152.428C257.88,152.428 259.51,150.798 259.51,148.798C259.51,146.798 257.88,145.168 255.88,145.168C253.88,145.168 252.25,146.798 252.25,148.798M27.34,148.798C27.34,150.798 28.97,152.428 30.97,152.428C32.97,152.428 34.6,150.798 34.6,148.798C34.6,146.798 32.97,145.168 30.97,145.168C28.97,145.168 27.34,146.798 27.34,148.798M252.25,58.658C252.25,60.658 253.88,62.288 255.88,62.288C257.88,62.288 259.51,60.658 259.51,58.658C259.51,56.658 257.88,55.028 255.88,55.028C253.88,55.028 252.25,56.658 252.25,58.658" style="fill:white;fill-rule:nonzero;"/>
</svg>
