<?xml version="1.0" encoding="UTF-8" standalone="no"?>
<!DOCTYPE svg PUBLIC "-//W3C//DTD SVG 1.1//EN" "http://www.w3.org/Graphics/SVG/1.1/DTD/svg11.dtd">
<svg width="100%" height="100%" viewBox="0 0 780 145" version="1.1" xmlns="http://www.w3.org/2000/svg" xmlns:xlink="http://www.w3.org/1999/xlink" xml:space="preserve" xmlns:serif="http://www.serif.com/" style="fill-rule:evenodd;clip-rule:evenodd;stroke-linejoin:round;stroke-miterlimit:2;">
    <g transform="matrix(1.25,0,0,-1.25,0,815.1)">
        <g transform="matrix(1,0,0,1,-100.41,434.22)">
            <path d="M234.64,189.44L234.64,162.327L234.53,162.327L217.945,189.44L206.263,189.44L206.263,150.425L214.859,150.425L214.859,178.198L214.968,178.198L231.997,150.425L243.237,150.425L243.237,189.44L234.64,189.44Z" style="fill:rgb(204,32,40);"/>
        </g>
        <g transform="matrix(1,0,0,1,-100.41,434.22)">
            <path d="M249.08,169.93C249.08,157.418 257.955,149.428 270.133,149.428C282.309,149.428 291.182,157.418 291.182,169.93C291.182,182.441 282.309,190.428 270.133,190.428C257.955,190.428 249.08,182.441 249.08,169.93M258.01,169.93C258.01,177.201 262.805,182.494 270.133,182.494C277.459,182.494 282.253,177.201 282.253,169.93C282.253,162.658 277.459,157.366 270.133,157.366C262.805,157.366 258.01,162.658 258.01,169.93" style="fill:rgb(204,32,40);"/>
        </g>
        <g transform="matrix(1,0,0,1,-100.41,434.22)">
            <path d="M293.44,189.44L293.44,181.835L304.57,181.835L304.57,150.425L313.166,150.425L313.166,181.835L324.297,181.835L324.297,189.44L293.44,189.44Z" style="fill:rgb(204,32,40);"/>
        </g>
        <g transform="matrix(1,0,0,1,-100.41,434.22)">
            <path d="M328.98,189.44L328.98,150.425L356.477,150.425L356.477,158.362L337.577,158.362L337.577,166.292L354.49,166.292L354.49,174.229L337.577,174.229L337.577,181.503L355.483,181.503L355.483,189.44L328.98,189.44Z" style="fill:rgb(204,32,40);"/>
        </g>
        <g transform="matrix(1,0,0,1,-100.41,434.22)">
            <path d="M363.36,189.44L363.36,150.425L379.34,150.425C386.284,150.425 393.998,153.124 393.998,161.28C393.998,166.352 390.582,170.151 385.456,170.814L385.456,170.923C389.479,172.192 392.178,175.167 392.178,179.522C392.178,188.006 384.74,189.44 377.907,189.44L363.36,189.44ZM371.955,182.163L377.799,182.163C380.497,182.163 383.582,181.341 383.582,178.089C383.582,174.948 380.828,173.845 378.184,173.845L371.955,173.845L371.955,182.163ZM371.955,166.573L378.459,166.573C381.27,166.573 385.401,165.964 385.401,162.271C385.401,158.854 382.37,157.698 379.672,157.698L371.955,157.698L371.955,166.573Z" style="fill:rgb(204,32,40);"/>
        </g>
        <g transform="matrix(1,0,0,1,-100.41,434.22)">
            <path d="M396.97,169.93C396.97,157.418 405.841,149.428 418.018,149.428C430.199,149.428 439.07,157.418 439.07,169.93C439.07,182.441 430.199,190.428 418.018,190.428C405.841,190.428 396.97,182.441 396.97,169.93M405.899,169.93C405.899,177.201 410.689,182.494 418.018,182.494C425.348,182.494 430.143,177.201 430.143,169.93C430.143,162.658 425.348,157.366 418.018,157.366C410.689,157.366 405.899,162.658 405.899,169.93" style="fill:rgb(204,32,40);"/>
        </g>
        <g transform="matrix(1,0,0,1,-100.41,434.22)">
            <path d="M442.82,169.93C442.82,157.418 451.693,149.428 463.871,149.428C476.046,149.428 484.921,157.418 484.921,169.93C484.921,182.441 476.046,190.428 463.871,190.428C451.693,190.428 442.82,182.441 442.82,169.93M451.748,169.93C451.748,177.201 456.542,182.494 463.871,182.494C471.2,182.494 475.993,177.201 475.993,169.93C475.993,162.658 471.2,157.366 463.871,157.366C456.542,157.366 451.748,162.658 451.748,169.93" style="fill:rgb(204,32,40);"/>
        </g>
        <g transform="matrix(1,0,0,1,-100.41,434.22)">
            <path d="M514.84,189.44L499.687,173.239L499.687,189.44L491.093,189.44L491.093,150.425L499.687,150.425L499.687,168.943L515.556,150.425L527.569,150.425L508.723,171.313L526.08,189.44L514.84,189.44Z" style="fill:rgb(204,32,40);"/>
        </g>
        <g transform="matrix(1,0,0,1,-100.41,434.22)">
            <path d="M530.26,169.6C530.26,159.788 537.921,149.427 550.319,149.427C559.241,149.427 563.93,154.667 565.085,156.26L560.626,159.626C558.309,156.37 554.892,154.389 550.429,154.389C541.335,154.389 535.881,161.386 535.881,169.6C535.881,178.468 541.667,185.468 550.429,185.468C554.011,185.468 557.648,183.868 559.851,181.003L564.263,184.366C561.116,188.499 555.72,190.427 550.594,190.427C538.583,190.427 530.26,181.721 530.26,169.6" style="fill:white;"/>
        </g>
        <g transform="matrix(1,0,0,1,-100.41,434.22)">
            <path d="M597,189.44L597,173.239L576.773,173.239L576.773,189.44L571.482,189.44L571.482,150.425L576.773,150.425L576.773,168.28L597,168.28L597,150.425L602.287,150.425L602.287,189.44L597,189.44Z" style="fill:white;"/>
        </g>
        <g transform="matrix(1,0,0,1,-100.41,434.22)">
            <path d="M612.31,189.44L612.31,150.425L638.484,150.425L638.484,155.384L617.601,155.384L617.601,167.891L636.115,167.891L636.115,172.85L617.601,172.85L617.601,184.481L637.492,184.481L637.492,189.44L612.31,189.44Z" style="fill:white;"/>
        </g>
        <g transform="matrix(1,0,0,1,-100.41,434.22)">
            <path d="M643.56,169.6C643.56,159.788 651.221,149.427 663.618,149.427C672.542,149.427 677.23,154.667 678.388,156.26L673.923,159.626C671.61,156.37 668.193,154.389 663.73,154.389C654.636,154.389 649.181,161.386 649.181,169.6C649.181,178.468 654.968,185.468 663.73,185.468C667.312,185.468 670.948,183.868 673.152,181.003L677.56,184.366C674.419,188.499 669.021,190.427 663.892,190.427C651.884,190.427 643.56,181.721 643.56,169.6" style="fill:white;"/>
        </g>
        <g transform="matrix(1,0,0,1,-100.41,434.22)">
            <path d="M707.75,189.44L690.502,172.579L690.064,172.579L690.064,189.44L684.774,189.44L684.774,150.425L690.064,150.425L690.064,169.933L690.502,169.933L708.688,150.425L716.402,150.425L696.289,171.423L715.131,189.44L707.75,189.44Z" style="fill:white;"/>
        </g>
        <g transform="matrix(0.98855,0,0,0.98855,-99.195,435.39)">
            <path d="M112.06,211.89C111.166,211.47 110.472,210.726 110.099,210.072C109.903,209.738 109.621,209.183 109.517,208.872C109.466,208.718 109.419,207.489 109.419,207.489L113.63,132.273C113.63,132.273 159.227,105.029 159.615,104.868C161.171,104.219 162.861,103.926 164.482,103.96C165.294,103.976 167.651,104.402 168.041,104.519C168.236,104.577 244.613,127.794 251.474,129.966C251.474,129.966 252.895,131.061 253.236,131.619C253.575,132.169 253.823,132.889 253.824,133.625C253.834,134.362 253.614,135.041 253.318,135.585C253.169,135.86 252.998,136.108 252.815,136.337C252.723,136.451 251.389,137.363 251.389,137.363C251.389,137.363 219.724,141.083 215.759,141.504L203.867,142.783L215.626,140.595C219.545,139.862 250.375,134.432 250.375,134.432C250.442,134.334 250.646,133.803 250.632,133.702C250.617,133.601 250.334,133.176 250.233,133.079C243.369,131.329 165.86,110.522 165.652,110.486C165.238,110.41 164.817,110.373 164.412,110.375C163.596,110.379 162.84,110.539 162.15,110.845C161.977,110.921 120.598,136.452 120.598,136.452L116.745,204.616L187.661,190.061L192.944,147.659C188.249,147.174 146.66,142.541 146.66,142.541C141.295,141.904 135.93,141.276 130.569,140.6C135.969,140.81 141.364,141.069 146.76,141.319L197.25,144.098L193.154,190.879C193.154,190.879 192.813,192.891 192.441,193.502C192.079,194.113 191.48,194.685 190.825,195.024C190.497,195.199 189.239,195.507 189.197,195.511L122.71,210.566C122.71,210.566 114.49,212.344 114.077,212.344C113.491,212.344 112.784,212.241 112.06,211.89" style="fill:rgb(204,32,40);"/>
        </g>
        <g transform="matrix(0.98855,0,0,0.98855,-99.195,435.39)">
            <path d="M161.42,169.59C161.42,169.59 157.857,177.658 152.26,183.12C146.404,188.835 143.086,186.246 141.388,186.076C139.669,185.905 134.162,182.843 134.162,182.843C147.062,180.948 157.615,153.107 157.615,153.107C163.111,158.691 167.175,159.91 167.175,159.91C183.067,192.862 201.44,208.483 201.44,208.483L202.053,212.586C183.319,202.386 161.42,169.59 161.42,169.59" style="fill:white;"/>
        </g>
    </g>
</svg>
