<?xml version="1.0" encoding="UTF-8" standalone="no"?>
<!DOCTYPE svg PUBLIC "-//W3C//DTD SVG 1.1//EN" "http://www.w3.org/Graphics/SVG/1.1/DTD/svg11.dtd">
<svg width="100%" height="100%" viewBox="0 0 309 70" version="1.1" xmlns="http://www.w3.org/2000/svg" xmlns:xlink="http://www.w3.org/1999/xlink" xml:space="preserve" xmlns:serif="http://www.serif.com/" style="fill-rule:evenodd;clip-rule:evenodd;stroke-linejoin:round;stroke-miterlimit:2;">
    <path d="M231.196,17.897L230.894,26.968C220.302,26.242 217.276,28.964 217.276,37.853L217.276,39L208.198,39L208.198,18.441L217.276,18.441L217.276,24.307C220,19.53 223.692,17.353 231.196,17.897ZM15.131,54.786L24.209,54.786L24.209,19.71L15.131,19.71L15.131,54.786ZM60.099,17.958C53.744,17.958 49.871,20.8 47.813,23.944L47.813,4.593L0,4.593L0,13.059L39.34,13.059L39.34,39L47.994,39C47.994,31.562 52.292,26.303 57.557,26.303C62.097,26.303 64.154,28.54 64.154,36.583L64.154,54.786L73.232,54.786L73.232,33.318C73.232,23.038 67.967,17.958 60.099,17.958ZM95.807,47.83C90.3,47.83 86.729,44.504 86.124,39.001L77.59,39.001C78.437,48.677 84.792,55.511 95.747,55.511C104.22,55.511 109.001,51.701 111.483,45.956L103.796,42.569C102.646,46.016 100.528,47.83 95.807,47.83ZM95.444,18.138C92.204,18.066 88.997,18.815 86.124,20.315L90.481,26.483C92.115,25.637 93.871,25.213 95.747,25.273C100.831,25.273 103.433,28.6 103.796,32.953L95.02,32.953L95.02,39.001L112.33,39.001C112.451,38.094 112.512,37.247 112.512,36.341C112.572,23.157 103.857,18.138 95.444,18.138ZM185.32,47.83C179.813,47.83 176.242,44.504 175.637,39.001L167.103,39.001C167.95,48.677 174.305,55.511 185.26,55.511C193.733,55.511 198.514,51.701 200.996,45.956L193.309,42.569C192.099,46.016 189.981,47.83 185.32,47.83ZM185.018,18.138C181.777,18.066 178.571,18.815 175.697,20.315L180.055,26.483C181.689,25.637 183.444,25.213 185.32,25.273C190.404,25.273 193.007,28.6 193.37,32.953L184.594,32.953L184.594,39.001L201.904,39.001C202.025,38.094 202.085,37.247 202.085,36.341C202.146,23.157 193.43,18.138 185.018,18.138ZM291.416,47.83C285.909,47.83 282.338,44.504 281.733,39.001L273.199,39.001C274.046,48.677 280.401,55.511 291.356,55.511C299.829,55.511 304.61,51.701 307.092,45.956L299.405,42.569C298.195,46.016 296.077,47.83 291.416,47.83ZM290.932,18.138C287.692,18.066 284.485,18.815 281.612,20.315L285.969,26.483C287.604,25.637 289.359,25.213 291.235,25.273C296.319,25.273 298.921,28.6 299.284,32.953L290.509,32.953L290.509,39.001L307.818,39.001C307.939,38.094 308,37.247 308,36.341C308.06,23.157 299.345,18.138 290.932,18.138ZM117.172,0.299L133.5,39L143.426,39L130.971,8.221L147.07,8.221L147.07,0.36L117.172,0.3L117.172,0.299ZM165.59,0.359L146.888,47.71L144.104,54.786L153.606,54.786L176.06,0.36L165.59,0.36L165.59,0.359ZM249.051,53.939C252.924,53.939 256.132,52.85 258.371,50.976L254.74,45.231C253.59,45.715 252.319,45.896 251.048,45.896C246.085,45.896 243.24,42.933 242.272,39.002L233.375,39.002C234.586,47.408 240.638,53.939 249.051,53.939ZM260.247,23.521C258.19,20.256 254.013,17.897 248.203,17.897C242.514,17.837 237.249,20.921 234.465,25.94L242.03,30.778C243.422,27.875 246.146,25.94 250.322,25.94C256.253,25.94 260.247,30.536 260.247,35.978C260.247,37.007 260.126,38.035 259.824,39.002L269.326,39.002L269.326,18.502L260.247,18.502L260.247,23.521ZM251.472,62.163C245.601,62.163 243.422,59.321 242.998,55.995L234.344,55.995C234.525,62.345 238.762,69.299 251.653,69.299C260.368,69.299 266.057,64.945 268.418,58.414L260.247,55.572C259.097,59.805 255.95,62.163 251.472,62.163Z" style="fill:white;fill-rule:nonzero;"/>
</svg>
